<svg width="20" height="20" viewBox="0 0 20 20" fill="none" xmlns="http://www.w3.org/2000/svg">
<path fill-rule="evenodd" clip-rule="evenodd" d="M10.0001 18.3333C14.6025 18.3333 18.3334 14.6024 18.3334 9.99999C18.3334 5.39762 14.6025 1.66666 10.0001 1.66666C5.39771 1.66666 1.66675 5.39762 1.66675 9.99999C1.66675 14.6024 5.39771 18.3333 10.0001 18.3333ZM15.2666 14.0881C16.1442 12.9592 16.6667 11.5406 16.6667 9.99999C16.6667 6.60031 14.122 3.79498 10.8334 3.3849V6.77167C12.2711 7.14171 13.3334 8.44679 13.3334 9.99999C13.3334 10.6182 13.1651 11.1971 12.8719 11.6934L15.2666 14.0881ZM14.088 15.2666L11.6933 12.8719C11.1971 13.1651 10.6182 13.3333 10.0001 13.3333C9.38194 13.3333 8.8031 13.1651 8.30685 12.8719L5.91212 15.2666C7.04101 16.1441 8.45952 16.6667 10.0001 16.6667C11.5406 16.6667 12.9592 16.1441 14.088 15.2666ZM6.66675 9.99999C6.66675 10.6182 6.83504 11.1971 7.12831 11.6934L4.73359 14.0881C3.856 12.9592 3.33341 11.5406 3.33341 9.99999C3.33341 6.60031 5.87815 3.79498 9.16675 3.3849V6.77167C7.72906 7.14171 6.66675 8.44679 6.66675 9.99999ZM10.0001 11.6667C10.9206 11.6667 11.6667 10.9205 11.6667 9.99999C11.6667 9.07952 10.9206 8.33332 10.0001 8.33332C9.07961 8.33332 8.33341 9.07952 8.33341 9.99999C8.33341 10.9205 9.07961 11.6667 10.0001 11.6667Z" fill="#72767C"/>
</svg>
