<svg width="10" height="14" viewBox="0 0 10 14" fill="none" xmlns="http://www.w3.org/2000/svg">
<path d="M4.99978 3.16254C4.63586 3.16254 4.28012 3.27045 3.97754 3.47263C3.67495 3.67481 3.43912 3.96218 3.29985 4.29839C3.16059 4.6346 3.12415 5.00456 3.19515 5.36149C3.26614 5.71841 3.44138 6.04626 3.69871 6.30359C3.95604 6.56092 4.28389 6.73616 4.64081 6.80716C4.99774 6.87815 5.3677 6.84171 5.70391 6.70245C6.04012 6.56319 6.32749 6.32735 6.52967 6.02477C6.73185 5.72218 6.83977 5.36644 6.83977 5.00252C6.83921 4.5147 6.64518 4.04701 6.30023 3.70207C5.95529 3.35713 5.4876 3.16309 4.99978 3.16254ZM4.99978 5.92252C4.81782 5.92252 4.63995 5.86856 4.48866 5.76747C4.33736 5.66638 4.21945 5.5227 4.14981 5.35459C4.08018 5.18648 4.06196 5.0015 4.09746 4.82304C4.13296 4.64458 4.22058 4.48065 4.34924 4.35199C4.47791 4.22333 4.64183 4.13571 4.8203 4.10021C4.99876 4.06471 5.18374 4.08293 5.35184 4.15256C5.51995 4.22219 5.66363 4.34011 5.76472 4.4914C5.86582 4.64269 5.91977 4.82057 5.91977 5.00252C5.91949 5.24643 5.82247 5.48028 5.65 5.65275C5.47753 5.82522 5.24369 5.92224 4.99978 5.92252Z" fill="black"/>
<path d="M8.53548 1.46409C7.66128 0.590106 6.49432 0.0709252 5.25983 0.00674803C4.02535 -0.0574292 2.81084 0.337947 1.85073 1.11657C0.89061 1.89519 0.252941 3.00186 0.0607913 4.22299C-0.131358 5.44411 0.135633 6.69313 0.810236 7.72898L4.28629 13.0653C4.36364 13.1841 4.46941 13.2816 4.594 13.3492C4.71859 13.4167 4.85807 13.4521 4.99979 13.4521C5.1415 13.4521 5.28098 13.4167 5.40557 13.3492C5.53016 13.2816 5.63593 13.1841 5.71328 13.0653L9.18945 7.72898C9.81541 6.76808 10.092 5.62122 9.97297 4.48062C9.85391 3.34001 9.34639 2.275 8.53548 1.46409ZM8.41861 7.22681L4.9998 12.4751L1.58096 7.22681C0.534467 5.6203 0.758917 3.47039 2.11464 2.11461C2.49352 1.73572 2.94332 1.43516 3.43836 1.23011C3.9334 1.02505 4.46398 0.919514 4.9998 0.919514C5.53563 0.919514 6.06621 1.02505 6.56124 1.23011C7.05628 1.43516 7.50608 1.73572 7.88496 2.11461C9.24068 3.47039 9.4651 5.6203 8.41861 7.22681Z" fill="black"/>
</svg>
