<svg width="24" height="24" viewBox="0 0 24 24" fill="none" xmlns="http://www.w3.org/2000/svg">
<path d="M8.33904 14.5627C8.33904 15.9817 9.42804 17.1257 10.7811 17.1257H13.5421C14.7191 17.1257 15.6761 16.1247 15.6761 14.8927C15.6761 13.5507 15.0931 13.0777 14.2241 12.7697L9.79102 11.2297C8.92202 10.9217 8.33904 10.4487 8.33904 9.10678C8.33904 7.87478 9.29602 6.87378 10.4731 6.87378H13.2341C14.5871 6.87378 15.6761 8.01778 15.6761 9.43678" stroke="#494949" stroke-width="2" stroke-linecap="round" stroke-linejoin="round"/>
<path d="M12 5.40002V18.6" stroke="#494949" stroke-width="2" stroke-linecap="round" stroke-linejoin="round"/>
<path d="M12 23C18.0751 23 23 18.0751 23 12C23 5.92487 18.0751 1 12 1C5.92487 1 1 5.92487 1 12C1 18.0751 5.92487 23 12 23Z" stroke="#494949" stroke-width="2" stroke-linecap="round" stroke-linejoin="round"/>
</svg>
