<svg width="22" height="22" viewBox="0 0 22 22" fill="none" xmlns="http://www.w3.org/2000/svg">
<path d="M18.8283 5.76587L17.4167 4.35421L16.1242 3.06171C16.0387 2.97624 15.9372 2.90844 15.8256 2.86219C15.7139 2.81593 15.5942 2.79212 15.4733 2.79212C15.3525 2.79212 15.2328 2.81593 15.1211 2.86219C15.0094 2.90844 14.908 2.97624 14.8225 3.06171C14.737 3.14718 14.6692 3.24864 14.623 3.36031C14.5767 3.47198 14.5529 3.59167 14.5529 3.71254C14.5529 3.83341 14.5767 3.9531 14.623 4.06477C14.6692 4.17644 14.737 4.27791 14.8225 4.36337L15.7392 5.28004L14.9783 7.56254C14.8174 8.04748 14.7948 8.56765 14.913 9.06472C15.0312 9.56179 15.2855 10.0161 15.6475 10.3767L18.3517 13.1267V17.4167C18.3517 17.6598 18.2551 17.893 18.0832 18.0649C17.9113 18.2368 17.6781 18.3334 17.435 18.3334C17.1919 18.3334 16.9587 18.2368 16.7868 18.0649C16.6149 17.893 16.5183 17.6598 16.5183 17.4167V15.5834C16.5183 14.854 16.2286 14.1546 15.7129 13.6388C15.1972 13.1231 14.4977 12.8334 13.7683 12.8334H12.8333V4.58337C12.8333 3.85403 12.5436 3.15456 12.0279 2.63883C11.5122 2.12311 10.8127 1.83337 10.0833 1.83337H4.58333C3.85399 1.83337 3.15451 2.12311 2.63879 2.63883C2.12306 3.15456 1.83333 3.85403 1.83333 4.58337V17.4167C1.83333 18.1461 2.12306 18.8455 2.63879 19.3613C3.15451 19.877 3.85399 20.1667 4.58333 20.1667H10.0833C10.8127 20.1667 11.5122 19.877 12.0279 19.3613C12.5436 18.8455 12.8333 18.1461 12.8333 17.4167V14.6667H13.75C13.9931 14.6667 14.2263 14.7633 14.3982 14.9352C14.5701 15.1071 14.6667 15.3403 14.6667 15.5834V17.4167C14.6667 18.1461 14.9564 18.8455 15.4721 19.3613C15.9878 19.877 16.6873 20.1667 17.4167 20.1667C18.146 20.1667 18.8455 19.877 19.3612 19.3613C19.8769 18.8455 20.1667 18.1461 20.1667 17.4167V9.01087C20.1677 8.40858 20.0501 7.81198 19.8205 7.25518C19.5908 6.69838 19.2537 6.1923 18.8283 5.76587ZM11 17.4167C11 17.6598 10.9034 17.893 10.7315 18.0649C10.5596 18.2368 10.3264 18.3334 10.0833 18.3334H4.58333C4.34022 18.3334 4.10706 18.2368 3.93515 18.0649C3.76324 17.893 3.66667 17.6598 3.66667 17.4167V11H11V17.4167ZM11 9.16671H3.66667V4.58337C3.66667 4.34026 3.76324 4.1071 3.93515 3.93519C4.10706 3.76328 4.34022 3.66671 4.58333 3.66671H10.0833C10.3264 3.66671 10.5596 3.76328 10.7315 3.93519C10.9034 4.1071 11 4.34026 11 4.58337V9.16671ZM18.3333 10.4684L16.9217 9.05671C16.8054 8.93816 16.7235 8.79027 16.6848 8.62882C16.6461 8.46737 16.6519 8.29843 16.7017 8.14004L17.1692 6.72837L17.5267 7.09504C18.0359 7.60351 18.3255 8.29132 18.3333 9.01087V10.4684Z" fill="#494949"/>
</svg>
