<svg width="18" height="18" viewBox="0 0 18 18" fill="none" xmlns="http://www.w3.org/2000/svg">
<g clip-path="url(#clip0_47_4278)">
<path d="M17.4864 12.7197L13.5489 11.0322C13.3807 10.9605 13.1937 10.9454 13.0162 10.9892C12.8386 11.0329 12.6801 11.1331 12.5645 11.2748L10.8207 13.4052C8.08409 12.1149 5.88171 9.91257 4.59141 7.17591L6.72187 5.43216C6.86379 5.31674 6.96424 5.15822 7.00801 4.9806C7.05178 4.80298 7.03649 4.61594 6.96445 4.44779L5.27695 0.510287C5.19789 0.329024 5.05806 0.181029 4.88157 0.0918214C4.70508 0.00261353 4.50299 -0.0222158 4.31016 0.0216148L0.653906 0.865365C0.467989 0.908297 0.302114 1.01298 0.183352 1.16232C0.0645909 1.31167 -4.28277e-05 1.49686 2.12914e-08 1.68767C2.12914e-08 10.7052 7.30898 18.0002 16.3125 18.0002C16.5034 18.0003 16.6886 17.9357 16.8381 17.8169C16.9875 17.6982 17.0922 17.5322 17.1352 17.3463L17.9789 13.69C18.0225 13.4962 17.9971 13.2933 17.9072 13.1162C17.8173 12.9391 17.6685 12.7989 17.4864 12.7197Z" fill="#4E4E4E"/>
</g>
<defs>
<clipPath id="clip0_47_4278">
<rect width="18" height="18" fill="white"/>
</clipPath>
</defs>
</svg>
