<svg width="16" height="16" viewBox="0 0 16 16" fill="none" xmlns="http://www.w3.org/2000/svg">
<path d="M13.2254 6.3874C13.1701 6.27773 13.0856 6.18551 12.9811 6.12095C12.8767 6.05639 12.7564 6.02202 12.6336 6.02165H9.30855V2.03165C9.31568 1.8858 9.27462 1.74166 9.19169 1.62147C9.10876 1.50129 8.98858 1.41174 8.8497 1.36665C8.71618 1.32272 8.57218 1.32222 8.43837 1.36524C8.30456 1.40825 8.18781 1.49255 8.1049 1.60605L2.78489 8.92106C2.71823 9.01739 2.67821 9.12963 2.66887 9.2464C2.65952 9.36318 2.6812 9.48035 2.73169 9.58606C2.77819 9.70692 2.85896 9.81158 2.9641 9.88718C3.06924 9.96279 3.19416 10.006 3.32354 10.0117H6.64854V14.0017C6.64865 14.1419 6.69308 14.2785 6.77549 14.392C6.8579 14.5054 6.97407 14.5899 7.10739 14.6334C7.17421 14.6541 7.24361 14.6653 7.31354 14.6667C7.41847 14.6669 7.52198 14.6424 7.61559 14.595C7.70921 14.5476 7.79029 14.4787 7.8522 14.394L13.1722 7.079C13.2439 6.97978 13.2867 6.86271 13.2961 6.74069C13.3055 6.61866 13.281 6.49641 13.2254 6.3874ZM7.97855 11.9535V9.34666C7.97855 9.17029 7.90848 9.00114 7.78377 8.87643C7.65906 8.75172 7.48991 8.68166 7.31354 8.68166H4.65354L7.97855 4.07985V6.68665C7.97855 6.86302 8.04861 7.03217 8.17332 7.15688C8.29803 7.28159 8.46718 7.35165 8.64355 7.35165H11.3036L7.97855 11.9535Z" fill="#72767C"/>
</svg>
