<svg width="16" height="16" viewBox="0 0 16 16" fill="none" xmlns="http://www.w3.org/2000/svg">
<path d="M9.33712 7.3372H8.67045V6.67053C8.67045 6.49372 8.60021 6.32415 8.47519 6.19913C8.35016 6.0741 8.1806 6.00387 8.00378 6.00387C7.82697 6.00387 7.6574 6.0741 7.53238 6.19913C7.40736 6.32415 7.33712 6.49372 7.33712 6.67053V7.3372H6.67045C6.49364 7.3372 6.32407 7.40744 6.19905 7.53246C6.07402 7.65749 6.00378 7.82706 6.00378 8.00387C6.00378 8.18068 6.07402 8.35025 6.19905 8.47527C6.32407 8.6003 6.49364 8.67053 6.67045 8.67053H7.33712V9.3372C7.33712 9.51401 7.40736 9.68358 7.53238 9.8086C7.6574 9.93363 7.82697 10.0039 8.00378 10.0039C8.1806 10.0039 8.35016 9.93363 8.47519 9.8086C8.60021 9.68358 8.67045 9.51401 8.67045 9.3372V8.67053H9.33712C9.51393 8.67053 9.6835 8.6003 9.80852 8.47527C9.93355 8.35025 10.0038 8.18068 10.0038 8.00387C10.0038 7.82706 9.93355 7.65749 9.80852 7.53246C9.6835 7.40744 9.51393 7.3372 9.33712 7.3372ZM14.4771 7.53053L12.9105 6.00387V3.76387C12.9105 3.58706 12.8402 3.41749 12.7152 3.29246C12.5902 3.16744 12.4206 3.0972 12.2438 3.0972H10.0371L8.47712 1.53053C8.41514 1.46805 8.34141 1.41845 8.26017 1.38461C8.17893 1.35076 8.09179 1.33333 8.00378 1.33333C7.91578 1.33333 7.82864 1.35076 7.7474 1.38461C7.66616 1.41845 7.59243 1.46805 7.53045 1.53053L6.00378 3.0972H3.76378C3.58697 3.0972 3.4174 3.16744 3.29238 3.29246C3.16736 3.41749 3.09712 3.58706 3.09712 3.76387V6.00387L1.53045 7.53053C1.46797 7.59251 1.41837 7.66624 1.38452 7.74748C1.35068 7.82872 1.33325 7.91586 1.33325 8.00387C1.33325 8.09187 1.35068 8.17901 1.38452 8.26025C1.41837 8.34149 1.46797 8.41522 1.53045 8.4772L3.09712 10.0372V12.2439C3.09712 12.4207 3.16736 12.5902 3.29238 12.7153C3.4174 12.8403 3.58697 12.9105 3.76378 12.9105H6.00378L7.56378 14.4772C7.62576 14.5397 7.69949 14.5893 7.78073 14.6231C7.86197 14.657 7.94911 14.6744 8.03712 14.6744C8.12513 14.6744 8.21226 14.657 8.2935 14.6231C8.37474 14.5893 8.44848 14.5397 8.51045 14.4772L10.0705 12.9105H12.2771C12.4539 12.9105 12.6235 12.8403 12.7485 12.7153C12.8735 12.5902 12.9438 12.4207 12.9438 12.2439V10.0372L14.5105 8.4772C14.5708 8.41305 14.6179 8.33758 14.6489 8.25514C14.6799 8.17271 14.6943 8.08494 14.6912 7.99692C14.6881 7.90889 14.6675 7.82236 14.6308 7.74231C14.5941 7.66226 14.5418 7.59028 14.4771 7.53053ZM11.7771 9.29053C11.7141 9.35228 11.664 9.42591 11.6297 9.50716C11.5954 9.58841 11.5775 9.67566 11.5771 9.76387V11.5772H9.76378C9.67558 11.5776 9.58832 11.5954 9.50707 11.6298C9.42582 11.6641 9.35219 11.7142 9.29045 11.7772L8.00378 13.0639L6.71712 11.7772C6.65537 11.7142 6.58175 11.6641 6.50049 11.6298C6.41924 11.5954 6.33199 11.5776 6.24378 11.5772H4.43045V9.76387C4.43008 9.67566 4.41222 9.58841 4.37789 9.50716C4.34356 9.42591 4.29344 9.35228 4.23045 9.29053L2.94378 8.00387L4.23045 6.7172C4.29344 6.65546 4.34356 6.58183 4.37789 6.50058C4.41222 6.41933 4.43008 6.33207 4.43045 6.24387V4.43053H6.24378C6.33199 4.43017 6.41924 4.4123 6.50049 4.37797C6.58175 4.34364 6.65537 4.29353 6.71712 4.23053L8.00378 2.94387L9.29045 4.23053C9.35219 4.29353 9.42582 4.34364 9.50707 4.37797C9.58832 4.4123 9.67558 4.43017 9.76378 4.43053H11.5771V6.24387C11.5775 6.33207 11.5954 6.41933 11.6297 6.50058C11.664 6.58183 11.7141 6.65546 11.7771 6.7172L13.0638 8.00387L11.7771 9.29053Z" fill="#72767C"/>
</svg>
