<svg width="33" height="34" viewBox="0 0 33 34" fill="none" xmlns="http://www.w3.org/2000/svg">
<path d="M11.6742 20.3782C11.6742 22.2487 13.1097 23.7567 14.8932 23.7567H18.5327C20.0842 23.7567 21.3457 22.4372 21.3457 20.8132C21.3457 19.0442 20.5772 18.4207 19.4317 18.0147L13.5882 15.9847C12.4427 15.5787 11.6742 14.9552 11.6742 13.1862C11.6742 11.5622 12.9357 10.2427 14.4872 10.2427H18.1267C19.9102 10.2427 21.3457 11.7507 21.3457 13.6212" stroke="#292D32" stroke-width="3.22742" stroke-linecap="round" stroke-linejoin="round"/>
<path d="M16.5 8.29999V25.7" stroke="#292D32" stroke-width="3.22742" stroke-linecap="round" stroke-linejoin="round"/>
<path d="M16.5 31.5C24.5081 31.5 31 25.0081 31 17C31 8.99187 24.5081 2.5 16.5 2.5C8.49187 2.5 2 8.99187 2 17C2 25.0081 8.49187 31.5 16.5 31.5Z" stroke="#292D32" stroke-width="3.22742" stroke-linecap="round" stroke-linejoin="round"/>
</svg>
