<svg width="22" height="22" viewBox="0 0 22 22" fill="none" xmlns="http://www.w3.org/2000/svg">
<path d="M17.4167 8.70834H17.1233L15.9775 5.84834C15.7729 5.33983 15.4209 4.90407 14.9668 4.59701C14.5128 4.28994 13.9773 4.12558 13.4292 4.12501H7.92916C7.29234 4.12319 6.67463 4.34244 6.18146 4.74533C5.68829 5.14823 5.35023 5.70979 5.22499 6.33418L4.74833 8.70834H4.58333C3.85398 8.70834 3.15451 8.99808 2.63878 9.5138C2.12306 10.0295 1.83333 10.729 1.83333 11.4583V14.2083C1.83333 14.4515 1.92991 14.6846 2.10181 14.8565C2.27372 15.0284 2.50688 15.125 2.74999 15.125H3.66666C3.66666 15.8544 3.95639 16.5538 4.47212 17.0696C4.98784 17.5853 5.68732 17.875 6.41666 17.875C7.14601 17.875 7.84548 17.5853 8.36121 17.0696C8.87693 16.5538 9.16666 15.8544 9.16666 15.125H12.8333C12.8333 15.8544 13.1231 16.5538 13.6388 17.0696C14.1545 17.5853 14.854 17.875 15.5833 17.875C16.3127 17.875 17.0121 17.5853 17.5279 17.0696C18.0436 16.5538 18.3333 15.8544 18.3333 15.125H19.25C19.4931 15.125 19.7263 15.0284 19.8982 14.8565C20.0701 14.6846 20.1667 14.4515 20.1667 14.2083V11.4583C20.1667 10.729 19.8769 10.0295 19.3612 9.5138C18.8455 8.99808 18.146 8.70834 17.4167 8.70834ZM11.9167 5.95834H13.4292C13.6112 5.95999 13.7886 6.0158 13.9388 6.11864C14.089 6.22149 14.2052 6.36673 14.2725 6.53584L15.1433 8.70834H11.9167V5.95834ZM7.02166 6.69168C7.06452 6.48151 7.17972 6.29302 7.34721 6.15903C7.5147 6.02504 7.72388 5.95402 7.93833 5.95834H10.0833V8.70834H6.61833L7.02166 6.69168ZM6.41666 16.0417C6.23536 16.0417 6.05813 15.9879 5.90739 15.8872C5.75664 15.7865 5.63915 15.6433 5.56977 15.4758C5.50039 15.3083 5.48224 15.124 5.51761 14.9462C5.55298 14.7684 5.64028 14.605 5.76848 14.4768C5.89668 14.3486 6.06001 14.2613 6.23783 14.226C6.41564 14.1906 6.59996 14.2087 6.76745 14.2781C6.93495 14.3475 7.07812 14.465 7.17884 14.6157C7.27957 14.7665 7.33333 14.9437 7.33333 15.125C7.33333 15.3681 7.23675 15.6013 7.06484 15.7732C6.89293 15.9451 6.65978 16.0417 6.41666 16.0417ZM15.5833 16.0417C15.402 16.0417 15.2248 15.9879 15.0741 15.8872C14.9233 15.7865 14.8058 15.6433 14.7364 15.4758C14.6671 15.3083 14.6489 15.124 14.6843 14.9462C14.7196 14.7684 14.8069 14.605 14.9351 14.4768C15.0633 14.3486 15.2267 14.2613 15.4045 14.226C15.5823 14.1906 15.7666 14.2087 15.9341 14.2781C16.1016 14.3475 16.2448 14.465 16.3455 14.6157C16.4462 14.7665 16.5 14.9437 16.5 15.125C16.5 15.3681 16.4034 15.6013 16.2315 15.7732C16.0596 15.9451 15.8264 16.0417 15.5833 16.0417ZM18.3333 13.2917H17.6183C17.3606 13.0081 17.0464 12.7815 16.696 12.6265C16.3455 12.4714 15.9665 12.3913 15.5833 12.3913C15.2001 12.3913 14.8211 12.4714 14.4707 12.6265C14.1202 12.7815 13.8061 13.0081 13.5483 13.2917H8.45166C8.19391 13.0081 7.87974 12.7815 7.5293 12.6265C7.17885 12.4714 6.79987 12.3913 6.41666 12.3913C6.03345 12.3913 5.65447 12.4714 5.30403 12.6265C4.95358 12.7815 4.63941 13.0081 4.38166 13.2917H3.66666V11.4583C3.66666 11.2152 3.76324 10.9821 3.93515 10.8102C4.10706 10.6383 4.34021 10.5417 4.58333 10.5417H17.4167C17.6598 10.5417 17.8929 10.6383 18.0648 10.8102C18.2368 10.9821 18.3333 11.2152 18.3333 11.4583V13.2917Z" fill="#494949"/>
</svg>
