<svg width="22" height="22" viewBox="0 0 22 22" fill="none" xmlns="http://www.w3.org/2000/svg">
<g clip-path="url(#clip0_42_3840)">
<path d="M21.4839 7.5625H18.9114L18.1964 5.775C17.4616 3.93723 15.7081 2.75 13.7285 2.75H8.27148C6.29234 2.75 4.53836 3.93723 3.80316 5.775L3.08816 7.5625H0.516051C0.180465 7.5625 -0.0657459 7.87789 0.0158948 8.20316L0.273707 9.23441C0.330856 9.46387 0.537106 9.625 0.773863 9.625H1.63625C1.05918 10.129 0.687496 10.8616 0.687496 11.6875V13.75C0.687496 14.4427 0.952184 15.0679 1.375 15.5517V17.875C1.375 18.6343 1.99074 19.25 2.75 19.25H4.125C4.88425 19.25 5.5 18.6343 5.5 17.875V16.5H16.5V17.875C16.5 18.6343 17.1157 19.25 17.875 19.25H19.25C20.0093 19.25 20.625 18.6343 20.625 17.875V15.5517C21.0478 15.0683 21.3125 14.4431 21.3125 13.75V11.6875C21.3125 10.8616 20.9408 10.129 20.3642 9.625H21.2266C21.4633 9.625 21.6696 9.46387 21.7267 9.23441L21.9845 8.20316C22.0657 7.87789 21.8195 7.5625 21.4839 7.5625ZM6.35636 6.79637C6.66961 6.01348 7.428 5.5 8.27148 5.5H13.7285C14.572 5.5 15.3304 6.01348 15.6436 6.79637L16.5 8.9375H5.5L6.35636 6.79637ZM4.125 13.7414C3.3 13.7414 2.75 13.1931 2.75 12.3707C2.75 11.5483 3.3 11 4.125 11C4.95 11 6.1875 12.2336 6.1875 13.0561C6.1875 13.8785 4.95 13.7414 4.125 13.7414ZM17.875 13.7414C17.05 13.7414 15.8125 13.8785 15.8125 13.0561C15.8125 12.2336 17.05 11 17.875 11C18.7 11 19.25 11.5483 19.25 12.3707C19.25 13.1931 18.7 13.7414 17.875 13.7414Z" fill="#494949"/>
</g>
<defs>
<clipPath id="clip0_42_3840">
<rect width="22" height="22" fill="white"/>
</clipPath>
</defs>
</svg>
