<svg width="20" height="20" viewBox="0 0 20 20" fill="none" xmlns="http://www.w3.org/2000/svg">
<path d="M4.58341 14.5833H3.33341V5.41667H9.83342L9.16675 6.08333C9.00008 6.25 8.91675 6.41667 8.91675 6.66667C8.91675 7.16667 9.25008 7.5 9.75008 7.5C10.0001 7.5 10.1667 7.41667 10.3334 7.25L12.4167 5.16667C12.7501 4.83333 12.7501 4.33333 12.4167 4L10.3334 1.91667C10.0001 1.58333 9.50008 1.58333 9.16675 1.91667C8.83342 2.25 8.83342 2.75 9.16675 3.08333L9.83342 3.75H2.50008C2.00008 3.75 1.66675 4.08333 1.66675 4.58333V15.4167C1.66675 15.9167 2.00008 16.25 2.50008 16.25H4.58341C5.08341 16.25 5.41675 15.9167 5.41675 15.4167C5.41675 14.9167 5.08341 14.5833 4.58341 14.5833ZM17.5001 3.75H15.4167C14.9167 3.75 14.5834 4.08333 14.5834 4.58333C14.5834 5.08333 14.9167 5.41667 15.4167 5.41667H16.6667V14.5833H9.66675L10.3334 13.9167C10.6667 13.5833 10.6667 13.0833 10.3334 12.75C10.0001 12.4167 9.50008 12.4167 9.16675 12.75L7.08342 14.8333C6.75008 15.1667 6.75008 15.6667 7.08342 16L9.16675 18.0833C9.33342 18.25 9.50008 18.3333 9.75008 18.3333C10.0001 18.3333 10.1667 18.25 10.3334 18.0833C10.6667 17.75 10.6667 17.25 10.3334 16.9167L9.66675 16.25H17.5001C18.0001 16.25 18.3334 15.9167 18.3334 15.4167V4.58333C18.3334 4.08333 18.0001 3.75 17.5001 3.75Z" fill="#72767C"/>
</svg>
